<svg width="34" height="32" viewBox="0 0 34 32" fill="none" xmlns="http://www.w3.org/2000/svg">
<path d="M28.3333 0H5C2.24333 0 0 2.24333 0 5V9.71833C0 11.4733 0.636667 13.0683 1.66667 14.295V30C1.66667 30.442 1.84226 30.866 2.15482 31.1785C2.46738 31.4911 2.89131 31.6667 3.33333 31.6667H16.6667C17.1087 31.6667 17.5326 31.4911 17.8452 31.1785C18.1577 30.866 18.3333 30.442 18.3333 30V21.6667H25V30C25 30.442 25.1756 30.866 25.4882 31.1785C25.8007 31.4911 26.2246 31.6667 26.6667 31.6667H30C30.442 31.6667 30.866 31.4911 31.1785 31.1785C31.4911 30.866 31.6667 30.442 31.6667 30V14.2933C32.6967 13.0683 33.3333 11.4733 33.3333 9.71667V5C33.3333 2.24333 31.09 0 28.3333 0ZM30 5V9.71833C30 11.6183 28.585 13.2383 26.8483 13.33L26.6667 13.3333C24.8283 13.3333 23.3333 11.8383 23.3333 10V3.33333H28.3333C29.2533 3.33333 30 4.08167 30 5ZM13.3333 10V3.33333H20V10C20 11.8383 18.505 13.3333 16.6667 13.3333C14.8283 13.3333 13.3333 11.8383 13.3333 10ZM3.33333 5C3.33333 4.08167 4.08 3.33333 5 3.33333H10V10C10 11.8383 8.505 13.3333 6.66667 13.3333L6.485 13.3283C4.74833 13.2383 3.33333 11.6183 3.33333 9.71833V5ZM13.3333 23.3333H6.66667V18.3333H13.3333V23.3333Z" fill="url(#paint0_linear_441_6555)"/>
<defs>
<linearGradient id="paint0_linear_441_6555" x1="16.6667" y1="0" x2="16.6667" y2="31.6667" gradientUnits="userSpaceOnUse">
<stop stop-color="#EA9769"/>
<stop offset="1" stop-color="#EA6969"/>
</linearGradient>
</defs>
</svg>
