<svg width="20" height="20" viewBox="0 0 20 20" fill="none" xmlns="http://www.w3.org/2000/svg">
<path d="M11.951 0.71962L12.1333 0.889626L12.8521 1.60837C13.0989 1.85409 13.4228 2.00559 13.7673 2.03963L13.916 2.04696H14.944C16.5478 2.04696 17.8592 3.30112 17.9509 4.88201L17.956 5.05896V6.08596C17.956 6.43575 18.0766 6.77203 18.2942 7.03941L18.3933 7.14963L19.1121 7.86843C20.2436 8.99483 20.2942 10.7961 19.2576 11.9832L19.1223 12.1283L18.3939 12.8567C18.149 13.1022 17.9974 13.4263 17.9633 13.7704L17.956 13.919V14.948C17.956 16.5517 16.7019 17.8623 15.1209 17.9538L14.944 17.959H13.916C13.5674 17.959 13.2307 18.0801 12.9632 18.2983L12.8529 18.3977L12.1351 19.1145C11.0099 20.2473 9.20732 20.2976 8.0198 19.2606L7.86565 19.1163L7.14854 18.3992C6.90014 18.1525 6.57571 18.0005 6.2322 17.9663L6.08398 17.959H5.05498C3.45185 17.959 2.1407 16.7054 2.0491 15.1249L2.04398 14.948V13.919C2.04398 13.571 1.92268 13.2339 1.7046 12.9669L1.60528 12.8569L0.888155 12.1388C-0.24442 11.0126 -0.294658 9.20997 0.742362 8.02362L0.877652 7.87863L1.60377 7.15151C1.85072 6.90281 2.00255 6.57899 2.03664 6.23463L2.04398 6.08596V5.05896L2.0491 4.88203C2.13732 3.35986 3.35648 2.14032 4.87811 2.05207L5.05498 2.04696H6.08398C6.43246 2.04696 6.76923 1.92607 7.03628 1.70889L7.14628 1.60999L7.86445 0.890829C8.99082 -0.240649 10.7932 -0.290463 11.951 0.71962ZM9.0414 1.84574L8.92668 1.94992L8.20543 2.67217C7.68818 3.18575 7.00406 3.49283 6.28181 3.54044L6.08398 3.54696H5.05498C4.26742 3.54696 3.6197 4.15111 3.55016 4.92139L3.54398 5.05896V6.08596C3.54398 6.81512 3.27937 7.51627 2.80208 8.06433L2.66668 8.20992L1.93951 8.93808C1.3877 9.4924 1.35557 10.3681 1.84322 10.9621L1.94768 11.077L2.66694 11.7973C3.18134 12.3129 3.48963 12.9982 3.53744 13.721L3.54398 13.919V14.948C3.54398 15.736 4.14769 16.3833 4.9175 16.4528L5.05498 16.459H6.08398C6.81177 16.459 7.51353 16.7239 8.06171 17.2012L8.20731 17.3366L8.93062 18.0599C9.48884 18.615 10.3647 18.6474 10.9583 18.1597L11.073 18.0553L11.7939 17.3354C12.3106 16.8211 12.9951 16.5132 13.718 16.4655L13.916 16.459H14.944C15.7327 16.459 16.3803 15.8555 16.4498 15.0855L16.456 14.948V13.919C16.456 13.1901 16.7208 12.4871 17.1974 11.9414L17.3327 11.7966L18.0602 11.0691C18.612 10.5142 18.6439 9.63894 18.157 9.04512L18.0527 8.93029L17.3308 8.2084C16.8169 7.69083 16.5101 7.0074 16.4625 6.28411L16.456 6.08596V5.05896C16.456 4.27055 15.8519 3.62269 15.0816 3.55314L14.944 3.54696H13.916C13.1868 3.54696 12.4848 3.28257 11.9379 2.8056L11.7927 2.67029L11.1047 1.98051L11.0649 1.94349C10.5106 1.39172 9.63472 1.35942 9.0414 1.84574ZM13.0964 12.0456C13.1664 12.1156 13.2264 12.1956 13.2664 12.2856C13.2964 12.3756 13.3164 12.4756 13.3164 12.5756C13.3164 12.6766 13.2964 12.7656 13.2664 12.8556C13.2264 12.9456 13.1664 13.0356 13.0964 13.1056C12.9564 13.2456 12.7664 13.3256 12.5664 13.3256C12.3664 13.3256 12.1764 13.2456 12.0364 13.1056C11.9664 13.0356 11.9164 12.9456 11.8764 12.8556C11.8364 12.7656 11.8164 12.6766 11.8164 12.5756C11.8164 12.4756 11.8364 12.3756 11.8764 12.2856C11.9164 12.1956 11.9664 12.1156 12.0364 12.0456C12.3164 11.7656 12.8164 11.7656 13.0964 12.0456ZM13.1 6.90233C13.3663 7.16859 13.3905 7.58526 13.1726 7.87887L13.1 7.96299L7.96001 13.103C7.66712 13.3959 7.19225 13.3959 6.89935 13.103C6.63309 12.8367 6.60888 12.4201 6.82673 12.1264L6.89935 12.0423L12.0394 6.90233C12.3322 6.60943 12.8071 6.60943 13.1 6.90233ZM7.95628 6.90596C8.09628 7.04496 8.17628 7.23596 8.17628 7.43596C8.17628 7.53596 8.16628 7.62496 8.12628 7.71596C8.08628 7.80596 8.02628 7.88596 7.95628 7.96596C7.88628 8.03596 7.80628 8.08496 7.71628 8.12496C7.62628 8.16496 7.52628 8.18596 7.42628 8.18596C7.32628 8.18596 7.23628 8.16496 7.14628 8.12496C7.05628 8.08496 6.96628 8.03596 6.89628 7.96596C6.82628 7.88596 6.77628 7.80596 6.73628 7.71596C6.69628 7.62496 6.67628 7.53596 6.67628 7.43596C6.67628 7.33496 6.69628 7.23596 6.73628 7.14596C6.77628 7.05596 6.82628 6.96596 6.89628 6.90596C7.18628 6.62496 7.67628 6.62496 7.95628 6.90596Z" fill="#EA7C69"/>
</svg>
