<svg xmlns="http://www.w3.org/2000/svg" viewBox="0 0 64 64" id="dinner"><path fill="#e57c23" d="M50 27.88c-3.17-.43-6-2.08-6-6.88 0-5.8 3-15 8-15s8 9.2 8 15c0 4.8-2.83 6.45-6 6.88V56a2 2 0 01-2 2h0a2 2 0 01-2-2zM40 44a8 8 0 00-16 0z"></path><path d="M55,25a1,1,0,0,1-.71-.29,1,1,0,0,1,0-1.41,4,4,0,0,0,.76-4,1,1,0,0,1,1.9-.64,6,6,0,0,1-1.24,6A1,1,0,0,1,55,25Z" opacity=".5"></path><path fill="#e57c23" d="M44 45H20a1 1 0 010-2H44a1 1 0 010 2zM32 33a1 1 0 01-1-1V30a1 1 0 012 0v2A1 1 0 0132 33zM41.72 38a1 1 0 01-.81-.42 1 1 0 01.23-1.39L42.76 35a1 1 0 011.39.22 1 1 0 01-.22 1.4l-1.62 1.17A1 1 0 0141.72 38zM22.25 38a1 1 0 01-.58-.19l-1.62-1.16A1 1 0 0121.21 35l1.63 1.17A1 1 0 0122.25 38zM39 49H25a1 1 0 010-2H39a1 1 0 010 2zM36 53H28a1 1 0 010-2h8a1 1 0 010 2z"></path><g><path fill="#f6d367" d="M9.67,28.87a7,7,0,0,1-2.62-1.53,6.29,6.29,0,0,1-2-4.61V19H19v3.73a6.55,6.55,0,0,1-4.67,6.14V58A2.21,2.21,0,0,1,12,60a2.53,2.53,0,0,1-1.65-.6A1.91,1.91,0,0,1,9.67,58Z"></path><path fill="#f6d367" d="M6 20a1 1 0 01-1-1V8A1 1 0 017 8V19A1 1 0 016 20zM18 20a1 1 0 01-1-1V8a1 1 0 012 0V19A1 1 0 0118 20zM12 20a1 1 0 01-1-1V8a1 1 0 012 0V19A1 1 0 0112 20z"></path></g></svg>